<svg width="18" height="14" viewBox="0 0 18 14" fill="none" xmlns="http://www.w3.org/2000/svg">
<path d="M16.875 13.75H1.12501C0.503661 13.75 0 13.2463 0 12.625C0 12.0037 0.503661 11.5 1.12501 11.5H16.875C17.4963 11.5 18 12.0037 18 12.625C18 13.2463 17.4963 13.75 16.875 13.75Z" fill="#090B17"/>
<path d="M16.875 8.12498H1.12501C0.503661 8.12498 0 7.62131 0 7.00001C0 6.3787 0.503661 5.875 1.12501 5.875H16.875C17.4963 5.875 18 6.37866 18 7.00001C18 7.62135 17.4963 8.12498 16.875 8.12498Z" fill="#090B17"/>
<path d="M16.875 2.50001H1.12501C0.503661 2.50001 0 1.99635 0 1.37501C0 0.753661 0.503661 0.25 1.12501 0.25H16.875C17.4963 0.25 18 0.753661 18 1.37501C18 1.99635 17.4963 2.50001 16.875 2.50001Z" fill="#090B17"/>
</svg>
