<svg width="103" height="100" viewBox="0 0 103 100" fill="none" xmlns="http://www.w3.org/2000/svg">
<rect opacity="0.25" width="102.667" height="100" rx="30" fill="#C1C6D0"/>
<path d="M22.4025 22.3887C22.4025 22.426 23.3108 23.6703 24.4307 25.151C34.2479 38.2407 44.3016 51.7286 44.3016 51.8281C44.3016 51.8903 42.6094 53.7816 40.5439 56.0089C38.466 58.2485 35.3429 61.6205 33.6009 63.5118C31.8589 65.4031 28.7483 68.7502 26.6952 70.965C24.6422 73.1798 22.8007 75.1831 22.614 75.407L22.2656 75.8301H24.7293H27.2054L32.3069 70.3304C35.1065 67.2944 39.1255 62.9394 41.2532 60.65C45.9814 55.536 46.6284 54.8517 46.7031 54.9263C46.7404 54.9637 50.2617 59.6795 54.5544 65.4031L62.3436 75.8301H70.8046C75.4582 75.8301 79.2656 75.8052 79.2656 75.7679C79.2656 75.7057 75.2093 70.2557 60.8629 51.094C58.2872 47.6598 56.172 44.798 56.1471 44.7358C56.1098 44.6238 61.5223 38.7384 72.3599 27.0796C74.413 24.8648 76.2296 22.8864 76.3914 22.6873L76.69 22.3265H74.2139H71.7378L62.7915 31.982C55.4254 39.9329 53.8203 41.6002 53.6959 41.4633C53.5341 41.3016 44.3639 29.058 41.0665 24.6035L39.3868 22.3389L30.9009 22.3265C26.2224 22.3265 22.4025 22.3514 22.4025 22.3887ZM41.6389 31.559C49.8635 42.5459 65.2054 63.0514 68.4156 67.369C70.2322 69.7954 71.7627 71.8609 71.8373 71.9355C71.9244 72.0599 71.153 72.0973 68.0548 72.0973H64.1477L62.4058 69.758C61.4477 68.4764 56.7568 62.1929 51.9663 55.7973C47.1759 49.4018 41.8007 42.1975 40.0089 39.8085C34.4346 32.3428 29.9677 26.3828 29.8432 26.2086C29.7437 26.0966 30.5151 26.0593 33.6134 26.0593H37.5204L41.6389 31.559Z" fill="#C0C6CE"/>
</svg>
