<svg width="15" height="15" viewBox="0 0 15 15" fill="none" xmlns="http://www.w3.org/2000/svg">
<path d="M14.7565 5.91571C14.7056 5.75895 14.5702 5.64471 14.4071 5.62105L9.82592 4.95533L7.7771 0.804096C7.7042 0.656319 7.55368 0.562775 7.3889 0.562775C7.2241 0.562775 7.07361 0.656319 7.00067 0.804096L4.95177 4.95533L0.37068 5.62105C0.207634 5.64471 0.072124 5.75895 0.0212103 5.91568C-0.0297324 6.07243 0.0127535 6.24448 0.130773 6.3595L3.44559 9.59079L2.66319 14.1535C2.6353 14.3159 2.70209 14.48 2.83541 14.5769C2.91083 14.6317 3.00016 14.6596 3.08992 14.6596C3.15884 14.6596 3.228 14.6432 3.29132 14.6099L7.38887 12.4556L11.4862 14.6098C11.6321 14.6865 11.8089 14.6738 11.9422 14.5769C12.0755 14.48 12.1423 14.3159 12.1145 14.1534L11.3318 9.59079L14.647 6.35947C14.765 6.24448 14.8075 6.07243 14.7565 5.91571Z" fill="#F0C015"/>
</svg>
